<svg width="300" height="300" viewBox="0 0 300 300" fill="none" xmlns="http://www.w3.org/2000/svg">
<circle cx="228" cy="62" r="35" fill="white"/>
<circle cx="77" cy="62" r="35" fill="white"/>
<path d="M42 120C42 117.791 43.7909 116 46 116H108C110.209 116 112 117.791 112 120V254C112 260.627 106.627 266 100 266H42V120Z" fill="white"/>
<path d="M263 120C263 117.791 261.209 116 259 116H197C194.791 116 193 117.791 193 120V254C193 260.627 198.373 266 205 266H263V120Z" fill="white"/>
<path d="M129.745 193.208C126.621 190.084 126.621 185.018 129.745 181.894L192.871 118.768C195.995 115.644 201.061 115.644 204.185 118.768L221.155 135.739C224.28 138.863 224.28 143.929 221.155 147.053L158.03 210.179C154.905 213.303 149.84 213.303 146.716 210.179L129.745 193.208Z" fill="white"/>
<path d="M101.627 118.657C104.752 115.533 109.817 115.533 112.941 118.657L143.904 149.62C147.028 152.744 147.028 157.809 143.904 160.933L126.933 177.904C123.809 181.028 118.744 181.028 115.62 177.904L84.6569 146.941C81.5327 143.817 81.5327 138.752 84.6569 135.627L101.627 118.657Z" fill="white"/>
</svg>
