<svg width="300" height="300" viewBox="0 0 300 300" fill="none" xmlns="http://www.w3.org/2000/svg">
<circle cx="228" cy="62" r="35" fill="#1F1F1F"/>
<path d="M112 62C112 81.33 96.33 97 77 97C57.67 97 42 81.33 42 62C42 42.67 57.67 27 77 27C96.33 27 112 42.67 112 62Z" fill="#1F1F1F"/>
<path d="M42 120C42 117.791 43.7909 116 46 116H108C110.209 116 112 117.791 112 120V254C112 260.627 106.627 266 100 266H42V120Z" fill="white"/>
<path d="M263 120C263 117.791 261.209 116 259 116H197C194.791 116 193 117.791 193 120V254C193 260.627 198.373 266 205 266H263V120Z" fill="white"/>
<path d="M130.099 180.248L193.225 117.122C196.154 114.193 200.902 114.193 203.831 117.122L220.802 134.093C223.731 137.021 223.731 141.77 220.802 144.699L157.676 207.825C154.747 210.754 149.998 210.754 147.069 207.825L130.099 190.854C127.17 187.925 127.17 183.177 130.099 180.248Z" fill="#1F1F1F" stroke="black"/>
<path d="M100.832 116.862C103.957 113.738 109.022 113.738 112.146 116.862L144.882 149.598C148.006 152.722 148.006 157.787 144.882 160.912L127.911 177.882C124.787 181.006 119.722 181.006 116.598 177.882L83.8618 145.146C80.7376 142.022 80.7376 136.957 83.8618 133.833L100.832 116.862Z" fill="#1F1F1F"/>
</svg>
